# xmcd
#
# Track frame offsets:
#	150
#	12932
#	27506
#	43521
#	59975
#	73978
#	89204
#	107799
#	125523
#	139985
#	151770
#	162467
#	178317
#	209072
#
# Disc length: 2944 seconds
#
# Revision: 0
# Processed by: cddbd v1.5.2PL0 Copyright (c) Steve Scherf et al.
# Submitted via: EZCDAudioConverter 1.0.6.1
#
DISCID=e10b7e0e
DTITLE=Raisin Pickers - Ghosts of the Southern Swamp
DYEAR=2016
DGENRE=
TTITLE0=Robin's call
TTITLE1=Going to th West
TTITLE2=Back of my boat
TTITLE3=Ghost of the Southern Swamp
TTITLE4=Dreamin' of Dewey
TTITLE5=Swimming with the fishes
TTITLE6=Breakfast zydeco
TTITLE7=The fiddlin' minstrel
TTITLE8=Belle Journée
TTITLE9=I told them all about you
TTITLE10=The guy who lives behind me
TTITLE11=This old town
TTITLE12=Going home medley: Dyer's Bay, Reel de joie, Lost off Scio Church, Bl
TTITLE12=ack snake, Winan's Lake
TTITLE13=For those who've gone before
EXTD=
EXTT0=
EXTT1=
EXTT2=
EXTT3=
EXTT4=
EXTT5=
EXTT6=
EXTT7=
EXTT8=
EXTT9=
EXTT10=
EXTT11=
EXTT12=
EXTT13=
PLAYORDER=
